<?xml version="1.0" standalone="no"?>
<!DOCTYPE svg PUBLIC "-//W3C//DTD SVG 20010904//EN"
 "http://www.w3.org/TR/2001/REC-SVG-20010904/DTD/svg10.dtd">
<svg version="1.0" xmlns="http://www.w3.org/2000/svg"
 width="1328.000000pt" height="2048.000000pt" viewBox="0 0 1328.000000 2048.000000"
 preserveAspectRatio="xMidYMid meet">

<g transform="translate(0.000000,2048.000000) scale(0.100000,-0.100000)"
fill="#000000" stroke="none">
<path d="M5798 20424 c-3 -3 17 -53 44 -112 28 -59 68 -152 89 -206 21 -55 57
-130 79 -167 22 -37 40 -73 40 -79 0 -7 -14 -25 -30 -40 -26 -25 -33 -44 -54
-147 -14 -65 -36 -204 -51 -308 -14 -105 -37 -255 -50 -335 -43 -257 -103
-741 -125 -1010 -11 -128 -14 -149 -24 -139 -3 2 -8 65 -11 139 -6 110 -4 143
9 179 13 36 14 41 2 31 -22 -17 -44 -84 -60 -175 -13 -75 -14 -78 -25 -52 -6
16 -11 51 -11 78 0 51 -12 63 -30 30 -12 -23 -13 -74 -3 -85 4 -4 6 -22 5 -40
-2 -22 8 -55 32 -101 20 -37 35 -69 34 -70 -2 -1 -31 -5 -65 -9 -61 -7 -63 -6
-75 19 -14 30 -24 32 -38 4 -16 -29 3 -71 46 -104 19 -14 34 -33 34 -42 0 -13
-12 -14 -87 -8 -53 4 -101 14 -121 25 -40 22 -62 17 -62 -14 0 -33 112 -131
184 -161 20 -9 36 -19 36 -23 0 -4 -42 -27 -92 -52 -163 -80 -413 -242 -534
-347 -111 -96 -187 -154 -194 -146 -3 4 -31 40 -62 78 -31 39 -90 101 -130
140 l-73 70 71 -75 c96 -101 174 -200 174 -221 0 -22 -37 -50 -162 -122 -110
-65 -236 -164 -355 -281 l-83 -80 -142 96 c-200 136 -398 308 -501 438 l-28
35 17 -35 c40 -83 299 -332 455 -438 133 -89 145 -128 15 -48 -92 58 -543 273
-666 318 -104 39 -238 74 -246 65 -4 -3 10 -9 30 -12 20 -4 40 -13 44 -20 4
-7 39 -22 77 -35 119 -38 320 -127 565 -249 129 -65 245 -124 258 -132 20 -12
24 -12 31 0 8 12 13 12 35 -3 33 -21 33 -34 1 -42 -15 -4 -25 -13 -25 -25 0
-24 -67 -53 -172 -74 -104 -20 -335 -82 -357 -95 -11 -7 41 -10 159 -9 96 1
176 -2 178 -5 2 -4 -30 -46 -72 -94 -42 -48 -94 -112 -117 -142 -22 -30 -44
-56 -47 -57 -4 -1 -16 11 -27 27 -11 16 -53 67 -92 114 -70 81 -121 120 -231
176 -75 37 -54 17 30 -30 56 -31 95 -62 127 -100 25 -30 74 -85 108 -123 48
-51 63 -74 63 -97 0 -36 -13 -38 -54 -6 -85 64 -367 178 -436 175 -14 -1 3 -7
37 -15 113 -24 311 -120 388 -187 35 -31 38 -38 27 -54 -7 -10 -19 -33 -27
-50 -12 -27 -21 -33 -48 -34 -17 -1 -36 0 -42 2 -5 1 -26 4 -46 5 -19 1 -76
16 -125 32 -182 63 -417 93 -506 65 -20 -6 -1 -8 65 -9 114 -1 227 -21 472
-82 225 -56 244 -71 115 -91 -45 -7 -88 -15 -96 -18 -23 -8 -16 -25 7 -18 25
8 129 -3 129 -14 0 -7 -99 -107 -185 -187 -44 -40 -13 -18 76 54 52 43 54 44
108 37 82 -10 96 -19 125 -76 30 -61 34 -141 12 -225 -18 -68 -23 -76 -75
-117 -53 -42 -265 -268 -368 -393 -119 -144 -251 -335 -269 -388 l-17 -50 30
-27 c28 -24 30 -31 26 -72 -5 -41 -2 -48 33 -88 22 -23 68 -70 103 -103 82
-78 92 -101 81 -191 -5 -39 -13 -86 -19 -105 -18 -59 -14 -68 43 -100 75 -42
92 -71 76 -123 -6 -22 -19 -51 -27 -64 -14 -21 -14 -23 8 -32 39 -15 89 -68
89 -93 0 -13 14 -52 30 -86 17 -35 30 -66 30 -68 0 -5 -267 -134 -276 -134
-17 0 -202 -118 -279 -178 -132 -102 -236 -219 -361 -407 -87 -130 -64 -107
36 36 83 118 288 325 405 408 70 49 361 204 477 253 13 5 29 -3 57 -32 22 -22
44 -40 49 -40 5 0 12 -15 15 -32 4 -28 -2 -40 -37 -78 -126 -136 -431 -612
-542 -844 -65 -137 -70 -161 -10 -50 91 170 164 288 364 594 149 227 230 330
260 330 18 0 22 -6 22 -30 0 -36 25 -51 44 -25 10 14 11 5 8 -52 -4 -67 -4
-68 15 -50 26 23 33 22 33 -9 0 -60 48 -94 133 -94 49 0 55 -2 67 -27 7 -16
15 -64 19 -108 7 -80 7 -80 14 -33 14 84 38 76 89 -30 49 -100 111 -204 103
-172 -3 14 -9 43 -12 65 l-6 40 89 -85 c89 -86 174 -149 249 -187 84 -42 89
-36 19 25 -38 33 -91 83 -119 111 l-50 52 50 -6 c35 -5 61 -2 87 9 21 9 63 16
95 16 32 0 103 7 157 15 142 21 207 20 240 -6 38 -29 34 -62 -24 -201 -96
-233 -271 -458 -416 -535 -74 -39 -164 -64 -207 -57 -24 4 -28 3 -17 -5 25
-18 101 -12 175 14 111 39 189 101 361 283 167 178 264 301 314 394 30 56 50
67 50 28 0 -26 57 -241 91 -345 35 -105 95 -205 172 -290 59 -64 85 -68 49 -7
-31 51 -101 188 -113 221 -14 37 -1 20 74 -96 37 -57 71 -103 77 -103 6 0 10
28 10 68 0 84 30 206 67 275 38 69 136 172 198 208 27 16 53 29 57 29 15 0 47
-78 62 -153 20 -96 20 -217 1 -327 -32 -180 -70 -257 -185 -372 -95 -96 -184
-148 -253 -148 -27 0 -37 -4 -35 -12 11 -33 180 -13 277 32 48 23 61 26 61 14
0 -27 -60 -156 -129 -279 -110 -192 -210 -381 -217 -409 -9 -39 21 -34 37 7
30 74 173 277 196 277 7 0 13 -3 13 -6 0 -4 -31 -102 -69 -220 -39 -117 -85
-268 -103 -336 -32 -120 -34 -124 -94 -190 -100 -109 -443 -514 -536 -633
-269 -345 -617 -898 -793 -1260 -206 -425 -365 -863 -410 -1130 -14 -81 -25
-170 -25 -198 0 -29 -9 -90 -20 -137 -23 -100 -24 -173 -5 -255 l14 -60 -7 60
c-15 132 4 271 53 379 14 32 27 57 29 55 2 -2 -2 -33 -10 -69 -18 -87 -38
-385 -31 -485 3 -46 1 -71 -3 -60 -42 102 74 -336 172 -650 42 -136 113 -335
221 -620 35 -93 83 -230 106 -304 24 -74 62 -171 86 -215 60 -113 100 -232
146 -438 43 -191 106 -429 144 -543 13 -38 26 -87 30 -108 6 -30 11 -36 25
-32 20 6 16 14 70 -135 51 -140 124 -326 167 -422 19 -43 50 -131 70 -196 19
-64 55 -154 79 -199 24 -46 44 -91 44 -101 0 -11 9 -27 20 -37 36 -33 24 -38
-67 -31 -185 14 -383 108 -643 307 -70 54 -183 161 -150 144 8 -5 83 -54 166
-111 274 -185 475 -294 575 -309 39 -6 61 -19 -207 112 -84 40 -189 99 -235
130 -46 31 -142 94 -214 140 -180 115 -268 221 -321 387 -12 39 -26 71 -31 71
-4 0 -9 -20 -11 -45 -2 -36 6 -62 42 -137 45 -91 45 -92 31 -140 -24 -86 -37
-128 -40 -131 -2 -2 -29 17 -61 42 -32 25 -62 42 -68 39 -6 -3 -8 -3 -4 2 4 4
-30 33 -75 63 -124 83 -152 107 -244 211 -93 104 -240 319 -287 419 -16 34
-36 62 -43 62 -7 0 -13 -5 -13 -10 0 -23 76 -160 137 -248 36 -51 63 -95 60
-98 -3 -3 -42 29 -87 72 -185 177 -340 492 -340 692 0 28 -4 52 -10 52 -18 0
-23 -52 -11 -123 12 -70 24 -110 90 -284 17 -46 29 -83 27 -83 -9 0 -130 123
-172 175 -26 33 -66 83 -89 110 -119 140 -241 368 -324 601 l-38 109 -34 -3
c-18 -1 -35 -4 -37 -6 -2 -2 26 -62 62 -132 92 -182 91 -202 -1 -44 -84 144
-141 267 -198 431 -66 190 -72 156 -9 -51 20 -63 53 -151 74 -195 125 -258
131 -302 12 -82 -79 145 -142 321 -166 466 -9 52 -25 129 -36 170 -31 122 -69
332 -81 459 -13 130 -7 329 12 392 10 32 10 43 0 53 -10 9 -15 8 -26 -7 -60
-81 -50 -475 20 -806 8 -35 12 -66 10 -69 -10 -9 -47 99 -64 184 -10 49 -26
108 -36 130 -16 40 -46 246 -66 465 -11 125 -14 446 -4 550 18 188 90 442 171
601 24 49 122 178 182 241 20 21 32 41 28 45 -19 19 -200 -208 -256 -319 -54
-109 -64 -117 -40 -32 50 174 160 416 256 561 63 95 183 226 263 287 66 51
234 157 302 191 56 29 63 38 50 64 -17 30 -58 39 -132 28 -73 -11 -119 -4
-119 18 0 7 10 17 23 21 12 4 68 33 124 66 113 66 251 119 361 138 96 17 108
35 18 27 -99 -9 -191 -34 -285 -78 -46 -22 -85 -38 -87 -36 -7 7 103 158 149
205 86 88 142 120 222 131 51 6 59 9 30 10 -49 1 -184 -31 -246 -58 -25 -11
-63 -34 -84 -51 -36 -28 -55 -37 -55 -24 0 14 216 219 315 298 126 100 325
205 480 251 50 15 99 30 110 35 l20 9 -20 0 c-48 1 -260 -61 -328 -96 -16 -8
-31 -13 -33 -11 -4 4 263 254 352 330 337 285 439 361 572 425 96 46 113 69
51 67 -35 -1 -323 -134 -421 -194 l-50 -31 21 28 c11 15 41 54 65 85 24 31 74
112 112 180 37 68 85 150 106 184 27 43 38 72 38 99 0 24 13 63 34 104 67 131
149 407 134 452 -3 8 -12 -20 -22 -61 -9 -41 -37 -124 -62 -185 -24 -60 -55
-135 -67 -165 -30 -75 -35 -39 -9 59 53 200 93 380 90 407 -2 17 -10 30 -19
32 -13 2 -17 -14 -23 -105 -7 -120 -18 -175 -30 -155 -4 7 -14 72 -22 145 -15
130 -40 240 -86 367 -17 48 -31 70 -56 87 -18 12 -39 20 -47 17 -8 -3 -20 4
-27 15 -9 14 -23 21 -46 21 -27 0 -38 7 -64 45 l-32 46 -56 -7 c-33 -4 -61
-13 -70 -23 -10 -12 -42 -21 -100 -29 -47 -6 -129 -25 -184 -41 -54 -17 -101
-31 -105 -31 -3 0 19 16 49 37 30 20 67 47 83 59 15 13 54 31 87 40 74 20 82
41 15 34 -51 -4 -195 -45 -240 -67 -46 -23 -412 -265 -633 -418 -51 -36 -96
-65 -100 -65 -11 0 84 85 171 151 78 61 157 136 157 151 0 19 -28 4 -115 -61
-51 -39 -124 -104 -161 -147 -38 -42 -94 -105 -124 -139 -59 -66 -247 -337
-399 -575 -52 -80 -98 -149 -103 -155 -19 -21 52 122 127 255 23 41 79 142
124 224 111 202 160 273 335 491 20 25 15 45 -14 45 -20 0 -71 -54 -96 -101
-9 -17 -44 -75 -78 -128 -35 -53 -75 -118 -91 -146 -15 -27 -47 -84 -70 -125
-23 -41 -82 -147 -130 -235 -49 -88 -112 -200 -140 -250 -29 -49 -77 -137
-107 -195 -78 -151 -235 -406 -244 -397 -5 5 35 116 91 249 20 48 42 120 50
160 22 107 30 365 16 473 -13 97 -45 185 -67 185 -17 0 -18 5 5 -55 28 -75 41
-187 41 -363 0 -164 -17 -276 -58 -392 -18 -50 -20 -53 -26 -30 -4 14 0 59 8
100 24 120 28 158 21 180 -10 30 -25 14 -25 -26 0 -70 -62 -347 -104 -466 -83
-233 -159 -389 -409 -843 -226 -409 -330 -642 -384 -860 -16 -67 -33 -86 -33
-37 0 26 34 247 46 304 5 23 2 29 -20 39 -36 17 -73 -2 -92 -47 -8 -19 -21
-106 -29 -192 -8 -86 -28 -251 -45 -367 -17 -115 -33 -237 -36 -270 -3 -33 -7
-75 -10 -94 -9 -55 -26 -20 -26 51 1 35 -2 77 -5 93 -5 23 -9 11 -18 -56 -7
-47 -26 -122 -44 -167 -50 -130 -57 -202 -42 -430 7 -108 19 -235 28 -282 10
-56 17 -199 22 -425 5 -224 11 -350 19 -368 18 -41 14 -46 -8 -12 -10 17 -38
77 -61 135 -50 127 -57 142 -69 135 -10 -6 17 -81 125 -355 69 -172 112 -288
251 -678 18 -52 38 -100 45 -108 6 -8 10 -17 7 -19 -2 -3 -15 14 -28 38 -13
23 -39 62 -57 86 -19 24 -65 96 -103 161 -85 144 -103 155 -159 99 -58 -57
-38 -124 99 -344 35 -55 92 -149 128 -210 36 -60 127 -209 202 -330 75 -121
183 -296 238 -388 56 -93 111 -180 122 -194 11 -14 20 -34 20 -44 0 -11 5 -18
11 -16 6 1 13 -11 16 -28 2 -16 6 -37 10 -45 9 -22 13 -41 18 -77 2 -18 6 -43
10 -55 4 -16 -10 -5 -44 33 -103 115 -270 229 -437 299 -70 29 -198 55 -188
38 3 -4 13 -8 22 -8 36 0 183 -59 263 -105 166 -95 346 -245 422 -353 20 -28
35 -52 33 -52 -2 0 -69 49 -149 109 -137 103 -243 161 -268 145 -6 -3 16 -22
48 -41 192 -116 350 -241 518 -408 180 -178 306 -323 395 -453 44 -65 116
-155 161 -201 l81 -84 -33 -14 c-39 -16 -89 -61 -89 -80 0 -7 33 -38 74 -70
41 -32 74 -59 72 -60 -2 -2 -23 4 -47 12 -57 20 -199 45 -258 45 -75 0 -154
-53 -132 -89 8 -12 21 -10 80 9 l72 23 113 -22 c209 -39 455 -122 671 -225
281 -135 679 -368 638 -374 -10 -1 -58 11 -107 28 -93 31 -126 37 -126 21 0
-18 46 -42 130 -67 47 -14 107 -32 134 -40 26 -8 67 -27 90 -41 49 -32 389
-192 496 -234 129 -51 153 -63 203 -97 27 -19 66 -40 87 -47 53 -19 408 -43
806 -56 181 -6 356 -14 389 -18 59 -7 58 -7 -55 -15 -63 -4 -545 -9 -1070 -11
-525 -1 -997 -6 -1047 -10 -81 -7 -93 -10 -93 -26 0 -18 -12 -19 -182 -20
-101 -1 -606 -5 -1123 -8 -904 -6 -940 -7 -943 -24 -4 -18 47 -19 1700 -16
936 2 2077 0 2533 -4 457 -5 857 -5 889 0 55 7 63 13 83 51 1 2 25 -12 54 -32
69 -46 152 -72 264 -83 50 -4 297 -8 550 -7 l460 1 97 25 c53 15 102 29 107
33 16 9 13 36 -6 57 -23 26 -4 45 28 28 41 -23 745 -35 1426 -25 452 7 472 8
463 26 -6 10 -10 28 -9 41 l0 23 17 -25 c9 -14 32 -41 50 -61 19 -22 32 -47
32 -64 0 -25 3 -27 28 -21 15 4 34 7 42 7 8 0 132 -5 275 -11 143 -6 420 -9
615 -8 344 3 355 4 364 23 5 11 27 29 50 40 30 15 44 29 51 53 l9 32 66 -2
c36 -1 84 4 108 11 38 11 45 18 76 79 52 103 130 321 176 487 79 287 117 390
222 600 55 109 152 364 203 534 21 70 53 149 72 180 140 228 210 366 305 601
112 275 167 480 234 865 30 174 118 561 131 575 2 3 9 -3 14 -13 16 -28 180
-183 269 -253 133 -104 225 -143 343 -145 36 -1 72 3 81 8 11 6 -11 9 -66 9
-73 0 -92 4 -163 35 -44 19 -105 51 -135 71 -53 35 -215 190 -215 205 0 5 -17
34 -38 66 -20 31 -37 60 -37 63 0 3 18 -11 40 -32 22 -21 40 -46 40 -56 0 -11
5 -15 14 -12 8 3 19 -3 25 -15 15 -27 172 -159 250 -209 73 -48 147 -77 228
-92 32 -5 69 -12 83 -15 33 -7 54 7 46 33 -4 13 -22 24 -54 32 -75 21 -117 46
-177 107 -64 65 -176 215 -179 240 -2 9 -9 19 -17 21 -47 14 -113 126 -143
242 -10 38 -19 118 -22 190 -4 121 -4 124 10 75 8 -27 26 -104 41 -170 37
-166 96 -338 110 -323 2 1 -12 56 -31 122 -43 148 -70 300 -85 470 l-12 133
54 65 c76 92 118 166 149 261 15 45 43 115 63 155 l35 73 17 -35 c28 -58 127
-159 183 -185 40 -19 52 -30 54 -50 2 -15 9 -26 18 -26 13 0 15 121 18 1023 2
1003 0 1062 -28 1062 -6 0 -10 -322 -10 -881 l0 -881 -36 69 c-20 37 -44 79
-53 93 -23 34 -52 101 -60 141 -4 19 -13 33 -19 32 -15 -4 -16 -6 8 117 28
141 36 336 21 485 -17 162 -57 390 -88 500 -33 114 -124 368 -153 426 -41 81
-203 363 -242 421 -21 31 -38 60 -38 63 0 13 107 -110 171 -197 71 -96 182
-275 258 -416 91 -167 162 -372 149 -428 -5 -20 -6 -18 -95 184 -25 56 -50
105 -55 108 -10 6 20 -71 72 -186 21 -47 43 -103 49 -125 16 -60 25 -590 12
-715 -8 -74 -8 -106 -1 -108 7 -3 4 -9 -5 -16 -18 -13 -38 -86 -23 -86 31 0
75 201 88 406 19 300 7 546 -33 674 -38 121 -129 317 -211 458 -65 111 -249
363 -301 412 -66 63 -116 150 -87 150 5 0 40 -25 78 -55 169 -136 341 -221
552 -275 l42 -11 0 -109 c0 -61 4 -110 9 -110 27 0 31 33 29 235 l-3 208 -85
17 c-159 32 -272 90 -482 246 -217 161 -421 373 -706 730 -27 35 -50 54 -64
54 -14 0 -56 37 -127 112 -207 218 -347 355 -403 397 -37 26 -69 60 -88 94
-36 63 -115 275 -106 284 18 18 198 -194 478 -562 207 -270 217 -283 217 -268
3 50 -396 559 -607 776 l-144 148 5 57 c3 31 10 225 17 431 l13 373 38 66
c100 171 125 321 80 480 -13 46 -26 81 -28 78 -3 -3 5 -47 17 -98 37 -154 16
-263 -75 -403 -42 -64 -56 -59 -35 12 6 21 13 121 17 223 14 440 -51 709 -282
1170 -42 83 -74 154 -72 156 4 4 225 -226 332 -346 81 -91 218 -268 277 -359
27 -42 79 -134 114 -206 73 -145 93 -228 93 -375 1 -181 -39 -272 -167 -390
-58 -52 -74 -72 -65 -81 19 -19 78 -1 130 38 l47 36 -33 -41 c-62 -80 -75 -85
-216 -98 -99 -9 -70 -22 53 -23 65 -1 91 3 122 19 135 69 200 234 186 476 -7
122 -17 186 -70 439 -54 255 -111 452 -185 635 -72 180 -253 555 -333 690 -65
109 -189 294 -230 342 -17 21 -29 40 -26 43 2 3 44 -20 92 -51 103 -65 272
-133 429 -174 142 -36 145 -37 247 -101 262 -162 528 -241 815 -240 78 0 114
5 158 21 72 27 83 42 15 23 -40 -12 -87 -14 -217 -11 -251 8 -426 51 -613 150
-149 80 -188 103 -188 110 0 19 87 30 165 20 92 -11 187 -1 210 22 15 14 11
15 -47 8 -35 -4 -104 -7 -154 -7 -90 0 -93 1 -198 53 -116 58 -107 50 -352
317 -282 307 -277 301 -312 407 -57 177 -154 351 -368 658 -64 91 -155 224
-204 296 -131 194 -258 347 -520 625 -69 73 -115 127 -103 121 52 -28 372
-338 492 -477 53 -61 45 -45 -31 61 -73 104 -133 172 -277 313 -173 170 -502
470 -567 517 -36 27 -24 45 14 21 103 -66 440 -209 747 -317 66 -23 143 -51
170 -62 28 -11 46 -15 40 -10 -5 5 -125 55 -265 112 -366 147 -518 214 -658
287 -122 65 -154 75 -111 34 35 -32 16 -35 -32 -5 -37 23 -40 28 -27 38 13 10
4 19 -59 61 -55 36 -84 63 -110 104 -73 115 -199 255 -358 401 -148 136 -175
163 -175 173 0 10 585 4 840 -8 58 -3 101 -3 95 0 -15 6 -361 43 -515 55 -74
5 -212 10 -307 10 l-171 0 -11 50 c-22 104 -78 176 -260 333 -262 226 -276
240 -301 314 -29 89 -89 235 -101 248 -12 12 -12 -24 2 -101 14 -83 8 -112
-13 -63 -9 20 -31 54 -50 75 -18 22 -53 64 -78 94 -55 69 -231 268 -331 376
-93 101 -200 257 -354 519 -64 110 -181 297 -260 415 -184 277 -239 373 -320
564 -37 86 -72 156 -77 156 -12 0 -4 -26 47 -140 49 -111 59 -140 48 -140 -12
0 -84 125 -128 220 -122 271 -118 263 -133 268 -17 5 -15 -37 3 -88 23 -64 9
-61 -21 3 -25 55 -40 74 -50 64 -8 -8 14 -83 58 -195 22 -57 38 -105 36 -108
-3 -2 -25 23 -49 57 -63 89 -99 129 -115 129 -22 0 -17 -35 16 -112 32 -74 34
-105 4 -46 -9 18 -38 65 -64 103 -26 39 -66 100 -90 138 -38 61 -64 80 -82 61z
m-1045 -3661 c-105 -177 -232 -467 -234 -536 -1 -18 -4 -43 -8 -57 -7 -24 -8
-24 -28 15 -28 54 -33 91 -12 87 12 -2 26 20 50 75 92 209 177 370 246 461 40
53 35 37 -14 -45z m970 -747 c37 -7 69 -15 72 -17 7 -7 -33 -69 -45 -69 -5 0
-20 10 -31 21 -12 12 -46 34 -76 50 -54 28 -54 29 -22 29 19 -1 64 -7 102 -14z
m-164 -37 c44 -17 91 -39 104 -49 19 -15 27 -16 36 -7 9 9 14 9 20 -2 16 -25
-2 -47 -89 -116 -47 -38 -133 -112 -191 -166 l-106 -99 -18 83 c-19 84 -25
231 -12 278 9 34 28 39 157 39 86 1 101 3 85 13 -24 14 -170 19 -211 8 -23 -7
-34 -4 -51 12 -27 24 -32 21 -44 -30 -22 -98 1 -338 41 -412 8 -15 -2 -28 -56
-75 -78 -70 -160 -126 -183 -126 -12 0 -16 10 -17 48 0 26 -15 88 -32 138 -34
98 -49 195 -37 241 7 26 8 26 15 8 5 -11 9 -31 9 -45 1 -29 18 -51 35 -44 7 3
10 32 8 88 -3 83 9 133 29 121 5 -4 8 -1 7 7 -2 7 3 12 10 10 8 -1 11 2 8 7
-3 5 5 16 19 25 30 20 32 13 5 -21 -11 -14 -20 -31 -20 -37 1 -6 7 0 15 14 8
14 14 22 15 18 0 -4 13 -2 30 3 16 6 28 14 26 18 -3 4 7 7 22 6 22 0 27 5 32
30 6 36 28 42 167 44 80 1 101 -3 172 -30z m-355 -11 c-3 -4 -11 -5 -19 -1
-21 7 -19 12 4 10 11 0 18 -5 15 -9z m-521 -705 c-7 -2 -19 -2 -25 0 -7 3 -2
5 12 5 14 0 19 -2 13 -5z m5744 -491 c26 -22 116 -109 198 -194 150 -155 235
-271 250 -343 6 -26 -11 -12 -112 90 -65 66 -187 186 -271 268 -84 81 -152
154 -152 163 0 20 18 54 29 54 5 0 31 -17 58 -38z m-6977 -423 c0 -5 5 -7 10
-4 6 3 10 2 10 -3 0 -6 -8 -13 -17 -16 -10 -4 -14 -4 -10 0 4 4 -1 13 -11 20
-16 13 -16 13 1 14 9 0 17 -5 17 -11z m-53 -5 c-3 -3 -12 -4 -19 -1 -8 3 -5 6
6 6 11 1 17 -2 13 -5z m80 -49 c-17 -19 -35 -35 -41 -35 -5 0 -1 7 10 16 19
15 19 16 -1 10 -15 -5 -13 -1 8 15 15 11 27 28 27 36 0 12 3 13 14 4 11 -10 9
-17 -17 -46z m-237 -9 c0 -2 -8 -10 -17 -17 -16 -13 -17 -12 -4 4 13 16 21 21
21 13z m7416 -27 c67 -43 172 -120 274 -202 87 -71 254 -226 248 -232 -2 -2
-37 21 -78 51 -41 30 -130 92 -197 137 -163 110 -313 233 -313 258 0 26 8 24
66 -12z m-7306 -53 c0 -2 -7 -7 -16 -10 -8 -3 -12 -2 -9 4 6 10 25 14 25 6z
m-365 -156 c3 -6 -1 -7 -9 -4 -18 7 -21 14 -7 14 6 0 13 -4 16 -10z m265 -15
c0 -8 -4 -15 -10 -15 -5 0 -7 7 -4 15 4 8 8 15 10 15 2 0 4 -7 4 -15z m1565 5
c8 -13 -85 -13 -105 0 -11 7 1 10 42 10 31 0 60 -4 63 -10z m344 -6 c2 -2 -16
-4 -42 -4 -25 0 -49 5 -52 11 -5 7 8 8 41 3 27 -3 51 -8 53 -10z m-169 -20 c0
-11 -5 -14 -16 -10 -9 3 -22 6 -30 6 -8 0 -14 5 -14 10 0 6 14 10 30 10 21 0
30 -5 30 -16z m-506 -3 c16 -6 17 -9 5 -13 -8 -3 -26 0 -40 8 -21 12 -22 13
-4 13 11 0 29 -4 39 -8z m59 2 c-7 -2 -19 -2 -25 0 -7 3 -2 5 12 5 14 0 19 -2
13 -5z m-1292 -26 c-10 -9 -11 -8 -5 6 3 10 9 15 12 12 3 -3 0 -11 -7 -18z
m22 -27 c3 -11 1 -23 -4 -26 -5 -3 -9 6 -9 20 0 31 6 34 13 6z m1552 -11 c5
-5 -1 -9 -17 -9 -44 0 -88 12 -82 22 8 12 84 2 99 -13z m-1690 -39 c16 -17 16
-20 3 -15 -9 4 -19 13 -22 21 -7 19 -2 18 19 -6z m157 -5 c3 -13 1 -22 -3 -19
-9 5 -13 44 -5 44 2 0 6 -11 8 -25z m748 -24 c0 -12 -26 -21 -60 -21 -29 0
-45 12 -33 24 10 9 93 7 93 -3z m1430 -21 c102 -11 329 -48 341 -55 4 -3 98
-21 210 -40 526 -91 866 -202 1304 -425 94 -47 231 -124 305 -169 74 -46 144
-89 156 -97 12 -7 29 -20 38 -29 9 -9 16 -14 16 -11 0 4 18 -6 40 -20 22 -15
40 -31 40 -36 0 -11 -17 -2 -48 25 -12 12 -30 22 -38 23 -9 1 -23 12 -31 24
-8 11 -20 19 -26 18 -13 -3 -95 42 -272 148 -311 186 -710 352 -1057 439 -201
51 -703 149 -937 184 -112 16 -206 33 -210 37 -3 4 12 4 34 1 22 -4 83 -11
135 -17z m-2290 -12 c0 -5 5 -6 10 -3 6 3 10 4 10 1 0 -15 -20 -13 -36 5 -16
18 -16 19 -1 13 9 -3 17 -10 17 -16z m110 12 c0 -5 -2 -10 -4 -10 -3 0 -8 5
-11 10 -3 6 -1 10 4 10 6 0 11 -4 11 -10z m1990 -23 c0 -20 -4 -22 -40 -19
-68 7 -62 42 8 42 27 0 32 -4 32 -23z m165 -88 c61 -11 166 -31 235 -44 69
-13 166 -31 215 -39 108 -19 247 -59 410 -119 577 -214 726 -283 985 -456 180
-120 454 -337 445 -352 -3 -5 1 -6 9 -3 23 9 298 -273 401 -411 49 -66 127
-171 174 -233 104 -136 115 -152 108 -152 -2 0 -81 98 -173 217 -279 358 -341
421 -694 704 -233 186 -427 314 -630 415 -58 28 -229 97 -380 153 -151 56
-285 106 -297 111 -61 25 -253 74 -473 120 -240 50 -390 82 -460 99 -73 18 14
11 125 -10z m-323 -67 c11 -11 -13 -12 -137 -6 -82 3 -155 9 -162 13 -6 3 55
6 137 6 110 0 152 -3 162 -13z m-448 -48 c29 -11 17 -19 -34 -21 -46 -2 -60 4
-43 20 8 9 56 9 77 1z m119 -11 c-7 -2 -19 -2 -25 0 -7 3 -2 5 12 5 14 0 19
-2 13 -5z m-417 -14 c7 -12 -31 -29 -64 -29 -21 0 -31 6 -35 20 -5 19 -1 21
44 19 28 -2 52 -6 55 -10z m-176 -14 c0 -11 -11 -15 -40 -15 -29 0 -40 4 -40
15 0 11 11 15 40 15 29 0 40 -4 40 -15z m597 9 c-3 -3 -12 -4 -19 -1 -8 3 -5
6 6 6 11 1 17 -2 13 -5z m120 0 c-3 -3 -12 -4 -19 -1 -8 3 -5 6 6 6 11 1 17
-2 13 -5z m-472 -25 c-4 -5 -12 -9 -18 -8 -9 0 -8 2 1 6 6 2 9 10 6 15 -4 7
-2 8 5 4 6 -4 9 -12 6 -17z m-441 2 c4 -5 3 -17 0 -26 -10 -25 -58 -16 -62 13
-3 19 1 22 27 22 16 0 32 -4 35 -9z m1441 -38 c203 -66 515 -194 515 -212 0
-5 17 -11 38 -14 57 -10 370 -172 522 -271 231 -151 427 -323 587 -514 158
-188 312 -454 384 -661 51 -147 50 -166 -1 -31 -180 475 -501 867 -955 1165
-205 134 -248 159 -390 220 -60 26 -130 58 -155 70 -164 84 -378 170 -617 249
-62 21 -113 40 -113 43 0 9 73 -8 185 -44z m46 -113 c120 -41 282 -109 262
-110 -6 0 -32 9 -58 20 -25 11 -108 43 -183 71 -124 46 -155 59 -140 59 3 0
56 -18 119 -40z m-320 -43 c47 -41 154 -125 239 -187 333 -245 597 -452 616
-481 3 -5 -34 22 -83 61 -48 39 -135 103 -193 142 -58 39 -137 97 -176 127
-39 31 -138 106 -220 166 -145 107 -300 244 -278 245 7 0 49 -33 95 -73z
m1189 22 c55 -23 99 -44 97 -46 -4 -3 -197 75 -206 83 -11 10 16 1 109 -37z
m-1910 -29 c0 -5 -6 -10 -14 -10 -8 0 -18 5 -21 10 -3 6 3 10 14 10 12 0 21
-4 21 -10z m333 -14 c12 -13 43 -48 68 -78 25 -29 75 -86 110 -127 103 -120
159 -189 159 -199 0 -4 40 -48 88 -98 164 -167 275 -299 364 -434 49 -74 99
-143 111 -153 20 -16 20 -17 2 -9 -30 15 -55 45 -131 161 -38 58 -109 148
-158 200 -48 53 -128 139 -177 191 -103 111 -102 110 -199 237 -41 54 -103
126 -138 161 -35 35 -61 66 -58 69 6 6 -11 22 -58 57 -65 47 -64 45 -33 46 17
0 37 -9 50 -24z m107 9 c56 -20 104 -59 279 -230 149 -145 280 -291 323 -360
14 -22 52 -71 84 -110 67 -79 199 -260 234 -320 34 -58 20 -42 -54 63 -166
234 -332 430 -572 672 -134 135 -248 244 -254 242 -6 -2 -17 3 -23 12 -7 9
-30 23 -52 31 -22 8 -33 14 -24 15 9 0 36 -7 59 -15z m-565 -25 c-3 -4 -18
-10 -35 -12 -26 -4 -28 -2 -17 11 6 9 16 19 22 23 11 8 37 -11 30 -22z m345
-29 c89 -96 228 -404 243 -539 7 -59 -7 -44 -22 25 -28 125 -115 326 -152 353
-4 3 -15 25 -25 50 -10 25 -20 47 -24 50 -3 3 -28 29 -55 59 -43 46 -46 53
-25 47 14 -4 41 -24 60 -45z m-165 17 c45 -22 60 -48 28 -48 -27 0 -83 38 -83
55 0 19 1 19 55 -7z m-146 -30 c5 -13 5 -27 0 -32 -11 -12 -24 0 -34 32 -5 16
-2 22 10 22 8 0 20 -10 24 -22z m1461 -8 c8 -5 11 -10 5 -10 -5 0 -17 5 -25
10 -8 5 -10 10 -5 10 6 0 17 -5 25 -10z m-1421 -120 c1 -8 -8 0 -19 17 -11 19
-17 40 -13 50 5 13 9 9 19 -18 7 -19 13 -41 13 -49z m1526 70 c3 -6 -1 -7 -9
-4 -18 7 -21 14 -7 14 6 0 13 -4 16 -10z m255 -149 c263 -164 448 -337 563
-526 33 -54 72 -145 62 -145 -2 0 -22 34 -44 76 -63 115 -127 201 -223 295
-114 113 -195 177 -348 279 -188 126 -193 136 -10 21z m-1270 -35 c0 -12 -5
-7 -19 24 -11 24 -11 24 3 6 9 -11 16 -24 16 -30z m-461 -86 c0 -10 -3 -8 -9
5 -12 27 -12 43 0 25 5 -8 9 -22 9 -30z m3646 -113 c6 -6 -8 0 -30 13 -73 43
-90 55 -115 79 -14 13 11 0 55 -29 44 -29 85 -57 90 -63z m2756 -167 c59 -157
113 -332 165 -532 36 -137 38 -150 39 -308 0 -154 -2 -168 -24 -215 l-24 -50
-17 175 c-10 96 -23 211 -30 255 -22 145 -100 537 -129 649 -56 215 -53 218
20 26z m-5727 -97 c19 -46 31 -83 26 -83 -11 0 -84 151 -94 195 l-7 30 20 -30
c11 -16 36 -67 55 -112z m5926 -336 c54 -180 63 -260 10 -97 -22 69 -49 160
-60 202 -11 42 -22 85 -25 95 -3 10 4 -2 15 -27 12 -25 39 -103 60 -173z
m-5180 -380 c0 -84 -11 -167 -21 -167 -10 0 -12 223 -3 233 16 15 24 -8 24
-66z m7343 -3596 c20 -8 27 -17 27 -38 0 -17 -3 -23 -8 -16 -4 7 -37 26 -72
43 l-65 31 46 -5 c25 -3 57 -10 72 -15z m-477 -1393 c34 -136 36 -142 43 -129
5 7 14 -52 21 -132 14 -158 9 -362 -12 -467 l-13 -65 -7 95 c-4 52 -20 232
-34 400 -15 168 -29 325 -31 350 -5 60 11 34 33 -52z m15 -802 c11 -12 12 -77
0 -94 -6 -10 -10 -4 -15 18 -7 37 -6 136 1 105 3 -11 9 -24 14 -29z m89 -439
c0 -36 -45 -117 -101 -179 -60 -68 -84 -77 -66 -23 13 37 146 225 159 225 4 0
8 -10 8 -23z m-363 -989 c-3 -7 -5 -2 -5 12 0 14 2 19 5 13 2 -7 2 -19 0 -25z
m-8515 -1960 c83 -65 273 -230 277 -240 5 -16 -152 78 -297 177 -55 38 -79 72
-68 100 7 19 28 10 88 -37z m3768 -1987 c22 -24 40 -44 40 -45 0 -1 -64 -3
-142 -4 -79 -2 -147 -7 -152 -12 -29 -29 -22 0 20 77 47 86 48 88 52 197 l5
110 68 -140 c41 -83 84 -157 109 -183z m1544 -18 l5 -33 -120 0 c-65 0 -119 2
-119 5 0 3 33 37 74 75 46 44 85 92 102 126 l28 56 13 -98 c6 -55 14 -114 17
-131z m-4029 -76 c264 -4 500 -11 525 -16 l45 -8 -60 -2 c-33 -1 -319 0 -635
1 -316 2 -786 2 -1045 0 -609 -3 -1115 6 -1115 22 0 13 1472 15 2285 3z"/>
<path d="M2973 16043 c9 -2 25 -2 35 0 9 3 1 5 -18 5 -19 0 -27 -2 -17 -5z"/>
<path d="M2510 13649 c-165 -6 -201 -10 -335 -43 -146 -35 -375 -107 -405
-126 -24 -15 -10 -12 86 20 125 43 246 75 414 110 138 29 157 30 405 32 170 1
237 4 195 8 -76 9 -111 9 -360 -1z"/>
<path d="M2865 13273 c-127 -30 -311 -90 -303 -99 3 -3 77 17 164 44 88 27
175 54 194 59 51 16 15 13 -55 -4z"/>
<path d="M3010 13175 c-74 -36 -128 -65 -120 -65 15 0 249 107 265 121 22 21
-19 5 -145 -56z"/>
<path d="M2480 13148 c-98 -44 -288 -143 -350 -183 -88 -56 -198 -145 -255
-206 -27 -28 -14 -20 39 26 110 94 265 193 441 281 141 71 182 95 160 93 -6 0
-21 -5 -35 -11z"/>
<path d="M2848 13103 c7 -3 16 -2 19 1 4 3 -2 6 -13 5 -11 0 -14 -3 -6 -6z"/>
<path d="M3434 12624 c-97 -151 -209 -395 -279 -609 -45 -136 -86 -314 -84
-362 2 -27 2 -27 6 -3 16 93 90 348 138 475 34 91 233 505 253 528 8 9 12 20
9 23 -3 3 -23 -20 -43 -52z"/>
<path d="M4313 12283 c-7 -2 -13 -11 -13 -19 0 -11 21 -14 101 -14 75 0 100 3
97 12 -3 7 -15 15 -29 19 -28 8 -138 10 -156 2z"/>
<path d="M2786 11875 c-9 -26 -7 -32 5 -12 6 10 9 21 6 23 -2 3 -7 -2 -11 -11z"/>
<path d="M11271 11844 c0 -11 3 -14 6 -6 3 7 2 16 -1 19 -3 4 -6 -2 -5 -13z"/>
<path d="M3522 6380 c0 -14 2 -19 5 -12 2 6 2 18 0 25 -3 6 -5 1 -5 -13z"/>
<path d="M3532 6330 c0 -14 2 -19 5 -12 2 6 2 18 0 25 -3 6 -5 1 -5 -13z"/>
<path d="M1761 6254 c0 -11 3 -14 6 -6 3 7 2 16 -1 19 -3 4 -6 -2 -5 -13z"/>
<path d="M1751 6204 c0 -11 3 -14 6 -6 3 7 2 16 -1 19 -3 4 -6 -2 -5 -13z"/>
<path d="M1742 6135 c0 -16 2 -22 5 -12 2 9 2 23 0 30 -3 6 -5 -1 -5 -18z"/>
<path d="M1732 6070 c0 -14 2 -19 5 -12 2 6 2 18 0 25 -3 6 -5 1 -5 -13z"/>
<path d="M3548 2979 c92 -108 129 -144 208 -196 71 -47 81 -37 12 13 -29 21
-109 92 -177 158 l-124 121 81 -96z"/>
<path d="M11300 609 c-359 -9 -378 -11 -412 -39 -20 -17 -21 -21 -8 -30 20
-14 920 -2 937 12 8 6 93 10 210 9 219 -1 316 11 179 22 -43 4 -141 7 -217 7
-88 0 -139 4 -141 11 -5 15 -182 18 -548 8z"/>
</g>
</svg>
