<?xml version="1.0" standalone="no"?>
<!DOCTYPE svg PUBLIC "-//W3C//DTD SVG 20010904//EN"
 "http://www.w3.org/TR/2001/REC-SVG-20010904/DTD/svg10.dtd">
<svg version="1.0" xmlns="http://www.w3.org/2000/svg"
 width="216.000000pt" height="331.000000pt" viewBox="0 0 216.000000 331.000000"
 preserveAspectRatio="xMidYMid meet">

<g transform="translate(0.000000,331.000000) scale(0.100000,-0.100000)"
fill="#000000" stroke="none">
<path d="M950 3071 l0 -179 -37 -28 c-20 -15 -79 -56 -130 -91 -111 -75 -185
-131 -195 -147 -4 -6 -8 -46 -8 -88 l0 -77 -64 -57 c-36 -31 -67 -63 -71 -71
-3 -9 14 -52 38 -97 25 -44 68 -126 97 -181 29 -55 57 -106 63 -112 6 -9 42
-13 113 -13 138 0 136 3 133 -159 -1 -69 -4 -134 -7 -143 -2 -10 -23 -28 -46
-42 -53 -31 -141 -121 -182 -187 -56 -88 -76 -160 -81 -294 -6 -136 -7 -132
112 -450 72 -192 95 -257 95 -267 0 -16 -57 -7 -108 17 -178 83 -313 246 -358
433 -18 78 -18 230 2 305 30 118 102 232 206 326 81 74 111 139 116 253 3 49
1 93 -4 98 -13 12 -123 -41 -213 -101 -179 -121 -305 -299 -361 -509 -32 -120
-33 -319 -2 -438 76 -291 309 -541 596 -637 125 -41 184 -45 662 -45 486 0
474 -1 487 45 3 11 19 58 37 105 17 47 44 121 60 165 15 44 42 118 60 165 33
89 75 208 117 325 34 96 35 266 3 368 -39 126 -130 248 -235 315 -22 15 -42
28 -45 30 -3 2 -8 139 -11 305 -5 278 -8 307 -28 367 -40 117 -98 204 -230
345 -25 28 -84 93 -131 145 -47 52 -92 102 -100 110 -8 8 -30 33 -49 55 -42
49 -168 190 -235 262 -27 29 -53 53 -57 53 -5 0 -9 -80 -9 -179z"/>
</g>
</svg>
